<?xml version="1.0" encoding="UTF-8"?><svg id="Layer_1" xmlns="http://www.w3.org/2000/svg" width="72" height="27.91" viewBox="0 0 72 27.91"><polygon fill="#edd600" points="7.35 26.09 49.03 26.09 67.82 26.09 69.32 21.95 4.37 21.95 7.35 26.09"/><path fill="#edd600" d="M54.47,15.48l-1.48,1.49-.93,1.24h-30.48l-1.05-1.49-19.85.08,3.46,4.81h65.31l2.22-6.13h-17.19ZM10.24,20.49c-.25.35-.75.26-1.12-.21-.38-.47-.48-1.13-.24-1.49.25-.35.75-.26,1.12.21.38.47.48,1.14.24,1.49Z"/><rect fill="#edd600" x="5.28" y="13.85" width="3.73" height="2.49"/><rect fill="#edd600" x="9.46" y="13.85" width="3.73" height="2.49"/><rect fill="#edd600" x="13.64" y="13.85" width="3.73" height="2.49"/><rect fill="#edd600" x="5.28" y="10.86" width="3.73" height="2.5"/><rect fill="#edd600" x="9.46" y="10.86" width="3.73" height="2.5"/><rect fill="#edd600" x="13.64" y="10.86" width="3.73" height="2.5"/><rect fill="#edd600" x="21.82" y="15.26" width="3.73" height="2.5"/><rect fill="#edd600" x="25.99" y="15.26" width="3.73" height="2.5"/><rect fill="#edd600" x="30.17" y="15.26" width="3.73" height="2.5"/><rect fill="#edd600" x="34.35" y="15.26" width="3.73" height="2.5"/><rect fill="#edd600" x="38.53" y="15.26" width="3.73" height="2.5"/><rect fill="#edd600" x="42.71" y="15.26" width="3.73" height="2.5"/><rect fill="#edd600" x="46.88" y="15.26" width="3.73" height="2.5"/><rect fill="#edd600" x="21.82" y="12.33" width="3.73" height="2.5"/><rect fill="#edd600" x="25.99" y="12.33" width="3.73" height="2.5"/><rect fill="#edd600" x="30.17" y="12.33" width="3.73" height="2.5"/><rect fill="#edd600" x="34.35" y="12.33" width="3.73" height="2.5"/><rect fill="#edd600" x="38.53" y="12.33" width="3.73" height="2.5"/><rect fill="#edd600" x="42.71" y="12.33" width="3.73" height="2.5"/><rect fill="#edd600" x="46.88" y="12.33" width="3.73" height="2.5"/><rect fill="#edd600" x="21.82" y="9.4" width="3.73" height="2.5"/><rect fill="#edd600" x="25.99" y="9.4" width="3.73" height="2.5"/><rect fill="#edd600" x="30.17" y="9.4" width="3.73" height="2.5"/><rect fill="#edd600" x="34.35" y="9.4" width="3.73" height="2.5"/><rect fill="#edd600" x="38.53" y="9.4" width="3.73" height="2.5"/><rect fill="#edd600" x="42.71" y="9.4" width="3.73" height="2.5"/><rect fill="#edd600" x="46.88" y="9.4" width="3.73" height="2.5"/><rect fill="#edd600" x="54.44" y="13.41" width="15.64" height="1.63"/><path fill="#edd600" d="M55.24,12.98h5.42v-6.84h-3.12l1.64-4.29c.02-.06,0-.12-.04-.14-.04-.03-.1,0-.12.05l-1.68,4.39h-2.82v.87h.71v5.97Z"/></svg>
